<?xml version="1.0" encoding="UTF-8"?>
<svg version="1.1" xmlns="http://www.w3.org/2000/svg" width="500" height="500">
<path d="M0 0 C4.43065195 4.18499204 6.46923003 8.60076646 7.68359375 14.5 C7.81907623 15.13774857 7.95455872 15.77549713 8.09414673 16.43257141 C8.52425523 18.46963921 8.9365856 20.509796 9.34765625 22.55078125 C9.7541042 24.49916643 10.16059005 26.44754432 10.56890869 28.39553833 C10.85616342 29.76862743 11.14173957 31.14206865 11.42572021 32.51583862 C13.80825832 43.99340063 16.41236967 55.42436181 18.97265625 66.86328125 C19.21433533 66.19200195 19.4560144 65.52072266 19.70501709 64.82910156 C21.99458165 58.47243948 24.28889986 52.11751107 26.58843613 45.76445007 C27.77020245 42.49900316 28.95018529 39.23293563 30.12597656 35.96533203 C31.48089659 32.20017076 32.84377745 28.43793321 34.20703125 24.67578125 C34.62386169 23.51401367 35.04069214 22.35224609 35.47015381 21.15527344 C42.52593031 1.74789223 42.52593031 1.74789223 51.95703125 -3.171875 C57.77086975 -5.59430771 63.00759366 -5.95078128 69.03515625 -3.94921875 C75.36429547 -1.30493621 79.11057461 2.42562428 82.03564453 8.50952148 C83.74592512 12.80572136 84.47670193 17.26345526 85.28515625 21.80078125 C85.69938556 24.00306401 86.11619769 26.20486203 86.53515625 28.40625 C86.87160156 30.18394775 86.87160156 30.18394775 87.21484375 31.99755859 C88.04471795 36.23087951 88.93590433 40.44777595 89.84765625 44.6640625 C90.0079985 45.40716171 90.16834076 46.15026093 90.33354187 46.9158783 C90.97437882 49.88081404 91.61667938 52.84539356 92.26675415 55.80831909 C92.72137721 57.88298807 93.16975659 59.95892623 93.6171875 62.03515625 C94.00934448 63.83098145 94.00934448 63.83098145 94.40942383 65.66308594 C94.90661792 68.48806218 95.08940082 71.00623558 94.97265625 73.86328125 C95.63265625 73.86328125 96.29265625 73.86328125 96.97265625 73.86328125 C97.10065109 72.98250916 97.22864594 72.10173706 97.36051941 71.1942749 C97.92209752 68.13840079 98.69846885 65.47685615 99.7668457 62.56738281 C100.13425369 61.55903381 100.50166168 60.55068481 100.88020325 59.51177979 C101.27809555 58.43668152 101.67598785 57.36158325 102.0859375 56.25390625 C102.49676071 55.13191833 102.90758392 54.00993042 103.33085632 52.85394287 C104.20013404 50.48278298 105.07192257 48.11254227 105.94604492 45.74316406 C107.27460755 42.14187523 108.59601572 38.53802881 109.91601562 34.93359375 C110.76390414 32.62354416 111.61219843 30.31364347 112.4609375 28.00390625 C112.85275711 26.93690491 113.24457672 25.86990356 113.64826965 24.77056885 C115.43230361 19.93747038 117.23930079 15.1141631 119.11401367 10.31542969 C119.41844894 9.53601013 119.72288422 8.75659058 120.0365448 7.95355225 C122.49164822 2.47147907 126.28297485 -0.93552916 131.734375 -3.37890625 C138.00205097 -5.50094663 143.9706544 -5.93150803 150.08984375 -3.21875 C155.73054942 0.02290035 160.64995372 4.33830772 162.52587891 10.75585938 C164.17658659 18.54214829 162.29109588 25.06067952 159.59765625 32.36328125 C159.00815186 34.01324097 159.00815186 34.01324097 158.40673828 35.6965332 C157.22126918 38.99535333 156.02064101 42.28791002 154.81176758 45.57818604 C153.92211631 48.00091327 153.03597187 50.42490331 152.15039062 52.84912109 C148.90704185 61.7229703 145.64953078 70.59151092 142.37905884 79.45539856 C138.45367005 90.09588768 134.5536337 100.74518313 130.68175125 111.40523338 C129.90367854 113.54710684 129.12507186 115.68878542 128.34628296 117.83039856 C127.82867277 119.25387517 127.31106413 120.67735234 126.79345703 122.10083008 C126.41027219 123.15458816 126.41027219 123.15458816 126.01934624 124.22963428 C124.75327674 127.71225358 123.48874797 131.19541844 122.22747803 134.67977905 C121.03272338 137.9803815 119.83415766 141.27957731 118.63302994 144.5778656 C117.98569956 146.35863509 117.34247028 148.14089377 116.69943237 149.92321777 C114.55246474 155.81023255 112.30761011 161.65039646 109.90332031 167.43676758 C109.43637756 168.56568924 108.96943481 169.6946109 108.48834229 170.85774231 C105.86909944 176.05158601 102.29418787 179.33644817 97.03515625 181.75390625 C91.0897649 183.62382772 84.39666688 183.38702481 78.69921875 180.8515625 C72.65080062 177.28771762 68.85720497 172.99246607 66.48376465 166.27067566 C65.87032193 163.38127179 65.94256842 160.79621422 66.04492188 157.8449707 C66.10531758 151.15632247 65.0877616 145.14725792 63.56640625 138.65625 C63.32224976 137.56484207 63.07809326 136.47343414 62.82653809 135.34895325 C62.05483839 131.91315422 61.26413936 128.4820706 60.47265625 125.05078125 C59.94143746 122.70145888 59.41147829 120.35185131 58.8828125 118.00195312 C57.59394731 112.2856898 56.2895166 106.57315654 54.97265625 100.86328125 C54.72066971 101.56104172 54.46868317 102.25880219 54.20906067 102.97770691 C51.81322302 109.61112364 49.41608083 116.24406721 47.01753712 122.87650585 C45.78499943 126.2848501 44.55293556 129.69336394 43.32202148 133.10229492 C42.13014281 136.40306197 40.93693218 139.70334489 39.74286461 143.00332069 C39.0746581 144.85102782 38.4077692 146.69921127 37.74092102 148.54740906 C35.62842252 154.38223622 33.48962855 160.20674665 31.29956055 166.01293945 C30.7124958 167.57187675 30.7124958 167.57187675 30.11357117 169.16230774 C27.63725101 175.02468629 24.01797188 178.50583742 18.20703125 181.10546875 C10.67802508 183.6590128 4.13309143 183.25132016 -3.02734375 179.86328125 C-8.47357919 176.76882929 -11.0598533 171.65193085 -13.02734375 165.86328125 C-13.62847991 161.49584301 -13.6924746 157.23235923 -12.49249268 152.95823669 C-10.77834029 146.76833445 -11.30279238 142.08802153 -12.765625 135.90234375 C-12.96584763 134.98995941 -13.16607025 134.07757507 -13.37236023 133.13754272 C-14.0105467 130.25018241 -14.67487365 127.36957717 -15.33984375 124.48828125 C-15.77578955 122.53162821 -16.21005068 120.57459902 -16.64257812 118.6171875 C-17.43695087 115.04794212 -18.23671252 111.4801411 -19.0559082 107.91650391 C-19.21960403 107.2041861 -19.38329987 106.49186829 -19.55195618 105.75796509 C-19.96666318 104.10512708 -20.48846943 102.47990422 -21.02734375 100.86328125 C-21.30438644 101.63034393 -21.58142914 102.39740662 -21.86686707 103.18771362 C-24.49342175 110.45659087 -27.12586702 117.72329549 -29.76476574 124.98769951 C-31.12087251 128.72144536 -32.47477801 132.45595745 -33.82348633 136.19238281 C-35.12791901 139.80588519 -36.43835088 143.41716168 -37.75277138 147.02704239 C-38.25037162 148.39680282 -38.74589466 149.7673199 -39.23918724 151.13863754 C-47.74622786 174.7732523 -47.74622786 174.7732523 -56.71484375 180.61328125 C-63.73367265 183.26189593 -70.04785897 183.57910034 -77.0625 180.79296875 C-82.78640295 178.08464091 -85.14918195 174.38558879 -88.109375 168.984375 C-90.95020025 159.32556915 -88.17693571 151.02118084 -84.71484375 141.92578125 C-84.22680298 140.60308835 -83.74054953 139.27973493 -83.25585938 137.95581055 C-82.15408285 134.95472993 -81.04187213 131.95776532 -79.92333984 128.96289062 C-77.83145133 123.35164249 -75.78192697 117.72520616 -73.734375 112.09765625 C-70.53551563 103.31031214 -67.32703256 94.52657213 -64.109375 85.74609375 C-60.65859205 76.32808905 -57.2196426 66.90585036 -53.7890625 57.48046875 C-52.5098425 53.96872284 -51.23042155 50.45705021 -49.95092773 46.94540405 C-49.13796945 44.71279949 -48.32577317 42.47991729 -47.5144043 40.24673462 C-45.04223812 33.44343607 -42.55381291 26.64661808 -40.02734375 19.86328125 C-39.73279297 19.0708905 -39.43824219 18.27849976 -39.13476562 17.46209717 C-38.34428092 15.35259404 -37.53922885 13.24947854 -36.7265625 11.1484375 C-36.29303467 10.01929932 -35.85950684 8.89016113 -35.4128418 7.72680664 C-32.5868881 1.88617035 -27.98583294 -1.44595079 -22.21484375 -4.13671875 C-14.04858439 -6.6826702 -6.84678886 -4.74796013 0 0 Z " fill="#17153B" transform="translate(95.02734375,161.13671875)"/>
<path d="M0 0 C4.40472375 4.16050145 6.46295372 8.56633095 7.68359375 14.4296875 C7.95623047 15.70674561 8.22886719 16.98380371 8.50976562 18.29956055 C8.78955733 19.67486687 9.06884284 21.05027626 9.34765625 22.42578125 C9.64417013 23.84501978 9.94171043 25.26404423 10.24023438 26.68286133 C10.85409373 29.60980943 11.46025892 32.53821359 12.06152344 35.46777344 C12.79955515 39.05020747 13.56565632 42.62576033 14.34609985 46.19917297 C15.06264953 49.48138938 15.76654704 52.76630357 16.47265625 56.05078125 C16.73997559 57.26644775 17.00729492 58.48211426 17.28271484 59.73461914 C17.52070801 60.86375732 17.75870117 61.99289551 18.00390625 63.15625 C18.21595703 64.14133545 18.42800781 65.1264209 18.64648438 66.14135742 C19.18271306 70.61621794 17.85935096 74.45613981 16.34960938 78.63989258 C16.0183606 79.56308792 15.68711182 80.48628326 15.3458252 81.43745422 C14.98549194 82.43004745 14.62515869 83.42264069 14.25390625 84.4453125 C13.87713745 85.49111984 13.50036865 86.53692719 13.11218262 87.61442566 C12.31018162 89.83836106 11.5064655 92.06167858 10.70117188 94.28442383 C9.50139197 97.59645536 8.3068297 100.91032788 7.11328125 104.22460938 C1.84945664 118.81496671 -3.54498967 133.35369561 -9.02734375 147.86328125 C-11.24729945 145.64332555 -11.443808 144.81266187 -12.06469727 141.82836914 C-12.24150528 140.9973317 -12.41831329 140.16629425 -12.60047913 139.31007385 C-12.87558571 137.96162636 -12.87558571 137.96162636 -13.15625 136.5859375 C-13.35081284 135.66364853 -13.54537567 134.74135956 -13.74583435 133.79112244 C-14.36758865 130.83744216 -14.97906691 127.88174917 -15.58984375 124.92578125 C-16.20616382 121.97383142 -16.82458209 119.0223344 -17.44456482 116.07115173 C-17.83000351 114.23311772 -18.21294476 112.39455787 -18.59315491 110.55543518 C-18.85363869 109.30415077 -18.85363869 109.30415077 -19.11938477 108.02758789 C-19.27101578 107.29415665 -19.42264679 106.5607254 -19.57887268 105.80506897 C-20.04091181 103.664859 -20.04091181 103.664859 -21.02734375 100.86328125 C-21.30438644 101.63034393 -21.58142914 102.39740662 -21.86686707 103.18771362 C-24.49342175 110.45659087 -27.12586702 117.72329549 -29.76476574 124.98769951 C-31.12087251 128.72144536 -32.47477801 132.45595745 -33.82348633 136.19238281 C-35.12791901 139.80588519 -36.43835088 143.41716168 -37.75277138 147.02704239 C-38.25037162 148.39680282 -38.74589466 149.7673199 -39.23918724 151.13863754 C-47.74622786 174.7732523 -47.74622786 174.7732523 -56.71484375 180.61328125 C-63.73367265 183.26189593 -70.04785897 183.57910034 -77.0625 180.79296875 C-82.78640295 178.08464091 -85.14918195 174.38558879 -88.109375 168.984375 C-90.95020025 159.32556915 -88.17693571 151.02118084 -84.71484375 141.92578125 C-84.22680298 140.60308835 -83.74054953 139.27973493 -83.25585938 137.95581055 C-82.15408285 134.95472993 -81.04187213 131.95776532 -79.92333984 128.96289062 C-77.83145133 123.35164249 -75.78192697 117.72520616 -73.734375 112.09765625 C-70.53551563 103.31031214 -67.32703256 94.52657213 -64.109375 85.74609375 C-60.65859205 76.32808905 -57.2196426 66.90585036 -53.7890625 57.48046875 C-52.5098425 53.96872284 -51.23042155 50.45705021 -49.95092773 46.94540405 C-49.13796945 44.71279949 -48.32577317 42.47991729 -47.5144043 40.24673462 C-45.04223812 33.44343607 -42.55381291 26.64661808 -40.02734375 19.86328125 C-39.73279297 19.0708905 -39.43824219 18.27849976 -39.13476562 17.46209717 C-38.34428092 15.35259404 -37.53922885 13.24947854 -36.7265625 11.1484375 C-36.29303467 10.01929932 -35.85950684 8.89016113 -35.4128418 7.72680664 C-32.5868881 1.88617035 -27.98583294 -1.44595079 -22.21484375 -4.13671875 C-14.04858439 -6.6826702 -6.84678886 -4.74796013 0 0 Z " fill="#17153B" transform="translate(95.02734375,161.13671875)"/>
<path d="M0 0 C4.77706936 3.87771889 8.37059549 8.16157122 9.59765625 14.296875 C10.27210948 21.4464458 8.68067043 27.13257171 6.22265625 33.796875 C5.63315186 35.44683472 5.63315186 35.44683472 5.03173828 37.13012695 C3.84626918 40.42894708 2.64564101 43.72150377 1.43676758 47.01177979 C0.54711631 49.43450702 -0.33902813 51.85849706 -1.22460938 54.28271484 C-4.46795815 63.15656405 -7.72546922 72.02510467 -10.99594116 80.88899231 C-14.92132995 91.52948143 -18.8213663 102.17877688 -22.69324875 112.83882713 C-23.47132146 114.98070059 -24.24992814 117.12237917 -25.02871704 119.26399231 C-25.54632723 120.68746892 -26.06393587 122.11094609 -26.58154297 123.53442383 C-26.83699953 124.23692922 -27.09245609 124.9394346 -27.35565376 125.66322803 C-28.62172326 129.14584733 -29.88625203 132.62901219 -31.14752197 136.1133728 C-32.34227662 139.41397525 -33.54084234 142.71317106 -34.74197006 146.01145935 C-35.38930044 147.79222884 -36.03252972 149.57448752 -36.67556763 151.35681152 C-38.82253526 157.2438263 -41.06738989 163.08399021 -43.47167969 168.87036133 C-44.17209381 170.56374382 -44.17209381 170.56374382 -44.88665771 172.29133606 C-47.50590056 177.48517976 -51.08081213 180.77004192 -56.33984375 183.1875 C-62.2852351 185.05742147 -68.97833312 184.82061856 -74.67578125 182.28515625 C-80.91000469 178.61183129 -84.26330587 174.22485428 -86.88671875 167.5546875 C-88.59372387 160.08007417 -86.28909409 154.50148633 -83.53515625 147.58984375 C-82.70216617 145.43588036 -81.87051229 143.28139987 -81.04003906 141.12646484 C-80.60502075 140.00592712 -80.17000244 138.8853894 -79.72180176 137.730896 C-77.54494838 132.06541809 -75.46987613 126.3634415 -73.39453125 120.66015625 C-72.97496155 119.50933563 -72.55539185 118.35851501 -72.12310791 117.17282104 C-71.26907111 114.82924155 -70.41569959 112.48541952 -69.56298828 110.14135742 C-68.27405389 106.60033695 -66.98082024 103.06090494 -65.6875 99.52148438 C-61.64938034 88.44253821 -57.7047265 77.34898812 -54.02134705 66.14700317 C-50.70531233 56.10374245 -47.13347429 46.1542012 -43.51342773 36.21704102 C-42.72336135 34.0407837 -41.93928944 31.86234184 -41.16088867 29.68188477 C-40.01368101 26.4691787 -38.84873201 23.26340852 -37.6796875 20.05859375 C-37.33888657 19.09394699 -36.99808563 18.12930023 -36.6469574 17.13542175 C-33.87146884 9.62638513 -30.59512536 2.72756173 -23.27734375 -1.140625 C-15.62678801 -4.56647626 -7.20031919 -4.69808061 0 0 Z " fill="#17153B" transform="translate(248.40234375,159.703125)"/>
<path d="M0 0 C1.64440738 2.99766442 2.52855277 5.78010613 3.25268555 9.11645508 C3.47599045 10.13463821 3.69929535 11.15282135 3.92936707 12.20185852 C4.16279312 13.29669052 4.39621918 14.39152252 4.63671875 15.51953125 C4.88041702 16.65146408 5.1241153 17.78339691 5.37519836 18.94963074 C5.88825479 21.34380129 6.39828612 23.7386218 6.90551758 26.1340332 C7.68287797 29.79075783 8.47868091 33.44315236 9.27539062 37.09570312 C9.77197331 39.42423635 10.26745244 41.75300524 10.76171875 44.08203125 C11.12096687 45.71517021 11.12096687 45.71517021 11.48747253 47.38130188 C13.73894969 58.20068099 11.26761387 65.6377775 7.51953125 75.84375 C7.06398574 77.09799527 6.60897368 78.3524344 6.15446472 79.60705566 C5.20111106 82.23435849 4.24333725 84.85998952 3.28198242 87.484375 C2.06659707 90.80243549 0.85914618 94.12330797 -0.3454113 97.4453125 C-5.03462244 110.37398354 -9.72233088 123.29711061 -15 136 C-16.94122652 133.08816022 -17.51462244 131.43025752 -18.25268555 128.08886719 C-18.47599045 127.09062927 -18.69929535 126.09239136 -18.92936707 125.06390381 C-19.16279312 123.9857843 -19.39621918 122.90766479 -19.63671875 121.796875 C-19.88041702 120.68572327 -20.1241153 119.57457153 -20.37519836 118.42974854 C-20.88869284 116.07678664 -21.39870763 113.72306308 -21.90551758 111.36865234 C-22.68204664 107.77523564 -23.47811219 104.18651825 -24.27539062 100.59765625 C-24.77203849 98.31015716 -25.26751938 96.02240432 -25.76171875 93.734375 C-26.0012175 92.66435242 -26.24071625 91.59432983 -26.48747253 90.49188232 C-28.34967435 81.68938426 -27.42292841 75.46327895 -24.2265625 67.05859375 C-23.80686691 65.92920883 -23.80686691 65.92920883 -23.37869263 64.77700806 C-22.46711653 62.32809354 -21.54600065 59.88288367 -20.625 57.4375 C-19.99174007 55.73979007 -19.35926057 54.04178884 -18.72753906 52.34350586 C-17.44474238 48.89681633 -16.1588053 45.45132695 -14.87011719 42.00683594 C-12.37762944 35.34022443 -9.91106907 28.66416754 -7.45672607 21.98342896 C-6.76616148 20.10642799 -6.07184589 18.23080839 -5.37744141 16.35522461 C-3.38567895 10.94402707 -1.46191749 5.57965175 0 0 Z " fill="#C6AAD4" transform="translate(178,179)"/>
<path d="M0 0 C0.33 0 0.66 0 1 0 C2.59874423 7.31108284 4.18204141 14.62538744 5.75463867 21.94213867 C6.291448 24.43086392 6.83179025 26.91882985 7.37573242 29.40600586 C8.15693121 32.9809713 8.92538785 36.55847401 9.69140625 40.13671875 C9.93717911 41.24834885 10.18295197 42.35997894 10.43617249 43.5052948 C10.76662819 45.06634697 10.76662819 45.06634697 11.10375977 46.65893555 C11.40021141 48.02794258 11.40021141 48.02794258 11.70265198 49.42460632 C12.21661781 53.87617232 10.87483942 57.62571159 9.37695312 61.77661133 C9.04570435 62.69980667 8.71445557 63.62300201 8.37316895 64.57417297 C8.01283569 65.5667662 7.65250244 66.55935944 7.28125 67.58203125 C6.9044812 68.62783859 6.5277124 69.67364594 6.13952637 70.75114441 C5.33752537 72.97507981 4.53380925 75.19839733 3.72851562 77.42114258 C2.52873572 80.73317411 1.33417345 84.04704663 0.140625 87.36132812 C-5.12319961 101.95168546 -10.51764592 116.49041436 -16 131 C-18.29181023 128.70818977 -18.48664311 127.66205675 -19.16088867 124.55371094 C-19.36417282 123.63225281 -19.56745697 122.71079468 -19.77690125 121.76141357 C-19.98845352 120.76249084 -20.2000058 119.76356812 -20.41796875 118.734375 C-20.63947098 117.70822083 -20.86097321 116.68206665 -21.08918762 115.62481689 C-21.55605077 113.45007923 -22.01897013 111.27449179 -22.47827148 109.09814453 C-23.18228788 105.77460549 -23.90576886 102.45571517 -24.63085938 99.13671875 C-25.08192355 97.02369211 -25.53183111 94.91041817 -25.98046875 92.796875 C-26.19809372 91.80604919 -26.41571869 90.81522339 -26.63993835 89.79437256 C-28.63023335 80.20302549 -26.35146371 73.76751549 -22.9921875 64.7421875 C-22.58847931 63.64391632 -22.18477112 62.54564514 -21.76882935 61.41409302 C-20.47585528 57.89920753 -19.17577798 54.38700406 -17.875 50.875 C-16.18254502 46.28992711 -14.49292163 41.70381608 -12.8046875 37.1171875 C-12.39418152 36.00237 -11.98367554 34.88755249 -11.56072998 33.73895264 C-8.97448639 26.69929033 -6.42890638 19.64686406 -3.9453125 12.5703125 C-3.51410599 11.3450032 -3.51410599 11.3450032 -3.07418823 10.09494019 C-2.81267975 9.34447418 -2.55117126 8.59400818 -2.28173828 7.82080078 C-1.94397873 6.85196457 -1.94397873 6.85196457 -1.59939575 5.86355591 C-0.97609354 3.92567343 -0.47198035 1.97968297 0 0 Z " fill="#C6AAD4" transform="translate(102,178)"/>
<path d="M0 0 C4.87521204 -0.06906124 9.74871108 -0.12873492 14.62402344 -0.16479492 C16.28065763 -0.17983465 17.93725231 -0.20027177 19.59375 -0.22631836 C21.9818703 -0.26291515 24.36946188 -0.27977439 26.7578125 -0.29296875 C27.85973434 -0.31619453 27.85973434 -0.31619453 28.98391724 -0.33988953 C33.7424556 -0.34142928 36.98498519 0.43211822 41 3 C43.31332486 6.46998729 43.33957563 7.92509248 43 12 C42.34 12.99 41.68 13.98 41 15 C41.66 15.515625 42.32 16.03125 43 16.5625 C45 19 45 19 45.5625 22.5 C45 26 45 26 42.6875 28.375 C37.99657044 31.21137601 33.9326278 31.13224062 28.61328125 31.09765625 C27.79627243 31.0962413 26.97926361 31.09482635 26.13749695 31.09336853 C23.52912732 31.08777294 20.92084366 31.07522129 18.3125 31.0625 C16.54362103 31.05748443 14.77474072 31.05292162 13.00585938 31.04882812 C8.67051318 31.03865603 4.33535278 31.01907979 0 31 C0 20.77 0 10.54 0 0 Z M14 8 C14 9.32 14 10.64 14 12 C18.62 12 23.24 12 28 12 C28 11.01 28 10.02 28 9 C24.85069107 7.95023036 22.61185544 7.89868405 19.3125 7.9375 C18.31863281 7.94652344 17.32476562 7.95554688 16.30078125 7.96484375 C15.54152344 7.97644531 14.78226562 7.98804688 14 8 Z M14 19 C14 20.32 14 21.64 14 23 C18.62 23 23.24 23 28 23 C28.33 21.68 28.66 20.36 29 19 C24.05 19 19.1 19 14 19 Z " fill="#000000" transform="translate(344,233)"/>
<path d="M0 0 C3.77286369 3.13067412 6.60602168 6.18586913 7.30078125 11.1484375 C7.32729014 16.18512597 6.90150452 19.69776916 4 24 C-1.49579576 29.34726074 -7.41371938 30.37340481 -14.875 30.3125 C-15.58245361 30.30758545 -16.28990723 30.3026709 -17.01879883 30.29760742 C-24.036042 30.13987112 -28.50423575 29.12405468 -33.9375 24.5 C-37.49670197 20.1858158 -37.3349036 16.11028928 -37.28515625 10.73046875 C-36.79337851 6.02152843 -34.48151974 3.43043286 -31.1875 0.25 C-22.15440066 -4.91177105 -9.17649277 -4.82771645 0 0 Z M-22 9 C-23.36636155 10.15866921 -23.36636155 10.15866921 -23.375 13.3125 C-23.35141952 17.07054463 -23.35141952 17.07054463 -20.875 19.4375 C-17.46537255 21.29055839 -15.81804737 21.71588388 -12 21 C-8.91666667 19.08333333 -8.91666667 19.08333333 -7 16 C-6.66339855 12.35592863 -6.66339855 12.35592863 -8 9 C-13.01293453 4.79997377 -16.82422841 5.50285703 -22 9 Z " fill="#000000" transform="translate(475,235)"/>
<path d="M0 0 C3.77286369 3.13067412 6.60602168 6.18586913 7.30078125 11.1484375 C7.32729014 16.18512597 6.90150452 19.69776916 4 24 C-1.49579576 29.34726074 -7.41371938 30.37340481 -14.875 30.3125 C-15.58245361 30.30758545 -16.28990723 30.3026709 -17.01879883 30.29760742 C-24.036042 30.13987112 -28.50423575 29.12405468 -33.9375 24.5 C-37.49670197 20.1858158 -37.3349036 16.11028928 -37.28515625 10.73046875 C-36.79337851 6.02152843 -34.48151974 3.43043286 -31.1875 0.25 C-22.15440066 -4.91177105 -9.17649277 -4.82771645 0 0 Z M-22 9 C-23.36636155 10.15866921 -23.36636155 10.15866921 -23.375 13.3125 C-23.35141952 17.07054463 -23.35141952 17.07054463 -20.875 19.4375 C-17.46537255 21.29055839 -15.81804737 21.71588388 -12 21 C-8.91666667 19.08333333 -8.91666667 19.08333333 -7 16 C-6.66339855 12.35592863 -6.66339855 12.35592863 -8 9 C-13.01293453 4.79997377 -16.82422841 5.50285703 -22 9 Z " fill="#000000" transform="translate(333,235)"/>
<path d="M0 0 C3.97153233 3.14412976 5.21262253 5.09529452 6 10 C3.77144426 10.0814222 1.54202345 10.13938079 -0.6875 10.1875 C-2.54955078 10.23970703 -2.54955078 10.23970703 -4.44921875 10.29296875 C-8.24438024 9.97983661 -9.87068502 9.03244169 -13 7 C-18.05693194 7.17761154 -18.05693194 7.17761154 -22 10 C-22.50007794 13.45786015 -22.50007794 13.45786015 -22 17 C-19.78774156 19.63769276 -18.40614032 19.94923246 -15 20.375 C-11.99935836 20.28352549 -11.99935836 20.28352549 -10.265625 18.48828125 C-7.05013078 16.37603418 -4.55224687 16.70688203 -0.75 16.8125 C0.51328125 16.83957031 1.7765625 16.86664063 3.078125 16.89453125 C4.04234375 16.92933594 5.0065625 16.96414062 6 17 C5.43724011 21.79339014 4.71529733 23.8070372 0.86328125 26.921875 C-4.16997674 29.83420038 -9.16248612 30.35913001 -14.875 30.3125 C-15.58245361 30.30758545 -16.28990723 30.3026709 -17.01879883 30.29760742 C-24.036042 30.13987112 -28.50423575 29.12405468 -33.9375 24.5 C-37.49670197 20.1858158 -37.3349036 16.11028928 -37.28515625 10.73046875 C-36.79337851 6.02152843 -34.48151974 3.43043286 -31.1875 0.25 C-22.13885085 -4.92065666 -9.19601866 -4.80875142 0 0 Z " fill="#000000" transform="translate(429,235)"/>
<path d="M0 0 C4.62 0 9.24 0 14 0 C14.08122832 3.37548805 14.14061118 6.74900518 14.1875 10.125 C14.21263672 11.07632813 14.23777344 12.02765625 14.26367188 13.0078125 C14.32012824 18.42762361 14.15215848 22.36360839 11 27 C5.42333092 31.29868242 1.12953733 32.1997844 -5.75 32.25 C-6.4409375 32.270625 -7.131875 32.29125 -7.84375 32.3125 C-13.94905038 32.35840451 -18.60066569 31.02049205 -23.375 27 C-26.44871295 23.21696868 -26.08847697 19.68927921 -26 15 C-21.71 15 -17.42 15 -13 15 C-12.62875 15.969375 -12.2575 16.93875 -11.875 17.9375 C-10.28717868 21.25257824 -10.28717868 21.25257824 -7 22.0625 C-4.05867075 22.29045217 -4.05867075 22.29045217 -2.34448242 20.77416992 C-0.67438463 18.57032015 -0.5803998 17.29591406 -0.48828125 14.55078125 C-0.45283203 13.70322266 -0.41738281 12.85566406 -0.38085938 11.98242188 C-0.35830078 11.10134766 -0.33574219 10.22027344 -0.3125 9.3125 C-0.27833984 8.41982422 -0.24417969 7.52714844 -0.20898438 6.60742188 C-0.12655533 4.40538879 -0.06159953 2.20271418 0 0 Z " fill="#000000" transform="translate(279,233)"/>
</svg>
